#!OML:ASF H:\ColoradoDance\Project 1\Capture day 1\Session 8\male.ASF
:FULLY-SPECIFIED
:DEGREES
102
upperback -3.276790 3.768550 2.681330
rfoot -29.490200 -16.078199
lradius 24.141100
lthumb -1.961590 26.877199
rradius 49.320801
lwrist -14.932700
rhand -10.901300 -33.809399
rhumerus -30.726999 3.430060 -66.341797
lowerneck -5.411280 7.833170 11.058500
lhand -28.596100 -3.093510
ltibia 40.116100
head 3.894050 5.011300 -2.855080
rwrist -4.145950
lfingers 7.125020
rtoes -23.150999
lowerback 3.834220 2.379470 10.063300
rfingers 7.125020
lclavicle -0.000000 -0.000000
upperneck 7.320690 9.977870 -5.414440
rfemur -15.128000 -7.616040 26.386000
thorax -5.137670 1.462970 -3.097420
rclavicle -0.000000 -0.000000
rtibia 50.030102
lfoot -8.065450 2.129250
lhumerus -17.700600 4.272350 56.787102
rthumb 15.115600 296.763000
root 37.525299 17.579000 -4.362160 173.382996 -43.982498 195.917007
ltoes -19.701599
lfemur -45.146702 4.724020 -24.419901
103
upperback -2.984490 -5.810080 3.304290
rfoot -16.745300 -7.971700
lradius 35.824799
lthumb 6.547650 56.063099
rradius 45.540100
lwrist -10.778600
rhand -35.993500 -37.782600
rhumerus -39.629799 3.838820 -55.998001
lowerneck -2.459510 -6.353350 -3.314050
lhand -19.784700 26.184299
ltibia 67.102600
head 3.286910 -4.535140 2.266320
rwrist -0.924784
lfingers 7.125020
rtoes -20.025700
lowerback 2.725180 -4.470090 4.698590
rfingers 7.125020
lclavicle 0.000000 0.000000
upperneck 7.269360 -9.120380 6.232690
rfemur -29.599600 15.261300 14.090300
thorax -4.737710 -3.063390 1.216400
rclavicle 0.000000 0.000000
rtibia 43.697800
lfoot -17.167500 -19.751101
lhumerus -11.856100 -3.128240 65.050102
rthumb -9.103540 292.433990
root 38.137699 17.860300 -0.707079 180.707993 -16.351200 187.291000
ltoes -18.662100
lfemur -24.888399 -2.126590 -13.144000
104
upperback -2.641440 -9.340060 4.961550
rfoot -23.532499 -1.538470
lradius 38.270302
lthumb 3.882550 69.734497
rradius 47.521000
lwrist -9.437240
rhand -31.355600 -31.049999
rhumerus -18.970800 10.574300 -68.950996
lowerneck 1.573010 -14.055100 -13.274200
lhand -22.544901 39.790100
ltibia 32.158501
head 5.959250 -9.730430 3.828820
rwrist -3.143550
lfingers 7.125020
rtoes 6.112010
lowerback 4.864830 -6.955500 -4.308150
rfingers 7.125020
lclavicle 0.000000 0.000000
upperneck 12.989500 -19.623699 9.688620
rfemur -43.505798 5.323980 23.203100
thorax -3.942980 -4.450350 8.256690
rclavicle 0.000000 0.000000
rtibia 31.463200
lfoot -22.379601 16.625700
lhumerus -37.269001 -0.541101 61.706699
rthumb -4.626540 299.020996
root 37.130402 18.658300 3.313440 195.330002 54.322399 189.307999
ltoes 18.161100
lfemur -19.696301 11.050100 -26.352600
105
upperback -1.668870 -3.788780 1.630510
rfoot -21.860500 -30.568399
lradius 27.544901
lthumb 2.834490 29.061100
rradius 45.156700
lwrist -15.736100
rhand -32.222099 -24.592199
rhumerus -22.254299 24.307699 -81.084702
lowerneck -0.127447 -13.706900 -10.999500
lhand -23.630199 -0.899827
ltibia 33.817902
head 5.593160 -9.403070 2.625210
rwrist -0.044494
lfingers 7.125020
rtoes -7.610240
lowerback 5.787290 -2.618180 -4.777650
rfingers 7.125020
lclavicle -0.000000 -0.000000
upperneck 12.849300 -18.828899 6.740870
rfemur -42.733799 -2.984660 17.682100
thorax -4.562710 -1.719940 4.733000
rclavicle -0.000000 -0.000000
rtibia 32.410999
lfoot -18.442499 -2.256300
lhumerus -52.149200 10.782500 63.058601
rthumb -5.463160 305.497986
root 36.606300 18.750500 5.853640 361.365997 54.857498 355.311005
ltoes -5.610340
lfemur -23.313801 -13.194400 -16.881201
106
upperback -2.414650 -3.812590 -1.951780
rfoot -30.049400 -44.723598
lradius 29.889200
lthumb -2.806410 38.762299
rradius 41.339001
lwrist -5.092240
rhand -32.744301 -1.993850
rhumerus -26.992201 10.291200 -68.755600
lowerneck 3.123430 -15.475700 -8.023490
lhand -29.470800 8.801020
ltibia 38.397800
head 3.983790 -10.674700 1.636860
rwrist 2.916440
lfingers 7.125020
rtoes 7.835650
lowerback 6.021960 -2.437080 -5.342330
rfingers 7.125020
lclavicle -0.000000 -0.000000
upperneck 9.661900 -21.106899 3.229560
rfemur -50.408401 -31.879801 27.206600
thorax -5.689730 -1.723080 1.361690
rclavicle -0.000000 -0.000000
rtibia 33.809101
lfoot -26.994900 12.952800
lhumerus -58.726601 1.583760 76.172798
rthumb -5.967360 328.109985
root 36.917702 17.759001 9.379480 361.648987 4.151710 366.933014
ltoes -14.109500
lfemur -3.271550 15.055800 -23.589399
107
upperback -3.205490 -7.068730 2.359280
rfoot -18.226500 -26.081800
lradius 23.971300
lthumb 12.301800 62.778702
rradius 36.683800
lwrist -0.485558
rhand -36.292198 5.491270
rhumerus -22.648199 6.918940 -59.957100
lowerneck 0.507877 -11.664300 -8.199540
lhand -13.820900 33.160500
ltibia 53.887699
head 2.827750 -7.967730 0.935812
rwrist 7.089400
lfingers 7.125020
rtoes 11.959300
lowerback 3.811670 -5.272970 -1.837080
rfingers 7.125020
lclavicle 0.000000 -0.000000
upperneck 6.917360 -15.558500 0.086373
rfemur -43.525700 -17.364401 29.075399
thorax -4.931470 -3.406160 4.008100
rclavicle 0.000000 -0.000000
rtibia 49.244598
lfoot 5.333770 3.812740
lhumerus -56.121601 -1.035940 85.550102
rthumb -9.391780 335.721008
root 35.917599 17.678600 14.012900 358.532013 -42.853298 368.868011
ltoes 23.135000
lfemur 1.641300 15.365500 -18.750200
108
upperback -3.384240 -6.962440 1.078880
rfoot -21.621901 -9.495000
lradius 25.551300
lthumb 8.421670 56.116402
rradius 30.918100
lwrist -18.438900
rhand -18.978300 -6.678400
rhumerus -31.627701 1.679070 -62.654598
lowerneck -3.863530 -6.174620 -2.690780
lhand -17.843201 26.304300
ltibia 32.500401
head 2.784370 -4.147190 -0.822646
rwrist 2.411530
lfingers 7.125020
rtoes -0.217961
lowerback 2.928250 -5.058410 -4.123330
rfingers 7.125020
lclavicle -0.000000 0.000000
upperneck 6.715430 -7.948590 -3.102300
rfemur -41.005100 -3.451390 19.317900
thorax -4.521910 -3.312280 3.848330
rclavicle -0.000000 0.000000
rtibia 55.602600
lfoot 5.616630 31.752001
lhumerus -54.286499 5.277720 63.966900
rthumb 7.326050 323.467987
root 34.856899 17.829700 17.444300 323.500000 -78.893402 407.502014
ltoes 31.917700
lfemur 4.534490 4.674750 -11.623700
109
upperback -4.287170 -6.351150 -0.488715
rfoot -21.774300 -8.838660
lradius 27.547600
lthumb 12.518900 52.073601
rradius 29.531401
lwrist -16.918800
rhand -20.304300 -14.518100
rhumerus -45.468300 -4.682600 -58.112000
lowerneck -4.224810 -1.898130 1.817110
lhand -13.595700 22.468700
ltibia 0.000000
head 1.427720 -1.337590 -1.836210
rwrist 13.543000
lfingers 7.125020
rtoes -2.580180
lowerback 2.229010 -4.411990 -6.500430
rfingers 7.125020
lclavicle 0.000000 0.000000
upperneck 2.526000 -2.507050 -4.642780
rfemur -52.783001 -12.674200 16.973900
thorax -5.075160 -2.942560 3.494320
rclavicle 0.000000 0.000000
rtibia 62.043499
lfoot 17.103399 28.287201
lhumerus -44.314201 1.460910 55.751598
rthumb 6.046080 315.588013
root 34.632500 17.480101 20.643499 224.985001 -70.898102 509.364990
ltoes 16.964800
lfemur 13.284800 -0.798349 -7.361700
110
upperback -3.381180 -5.893340 0.107092
rfoot -12.103500 -4.315670
lradius 37.041801
lthumb 8.669260 54.420101
rradius 30.860399
lwrist -10.564900
rhand -25.132200 -9.034380
rhumerus -55.646999 -9.397520 -59.808899
lowerneck -4.118030 0.688642 3.842480
lhand -17.586599 24.618099
ltibia -0.000000
head 1.631120 0.341465 -2.758050
rwrist 12.231000
lfingers 7.125020
rtoes -10.738000
lowerback 1.810390 -4.243440 -4.210870
rfingers 7.125020
lclavicle -0.000000 0.000000
upperneck 2.692440 0.902454 -6.550100
rfemur -56.960800 -7.337860 7.328880
thorax -4.076480 -2.820510 2.748520
rclavicle -0.000000 0.000000
rtibia 60.248600
lfoot -8.471270 17.355499
lhumerus -37.300701 -5.703990 60.159302
rthumb 1.383890 320.989990
root 34.962101 17.061800 24.185900 206.117004 -59.885502 525.630981
ltoes -18.759701
lfemur 17.898100 5.814320 -9.331910
111
upperback -2.903950 -5.681110 -0.836213
rfoot 5.706620 -13.506700
lradius 52.937199
lthumb 7.038800 55.672699
rradius 22.405199
lwrist -5.384650
rhand -16.556700 -2.247880
rhumerus -61.442001 -15.686400 -71.308502
lowerneck -4.937650 0.148045 3.942440
lhand -19.275900 25.809700
ltibia 10.486200
head 2.260220 0.010464 -1.989220
rwrist 12.417000
lfingers 7.125020
rtoes -7.440620
lowerback 1.498310 -3.968130 -8.141930
rfingers 7.125020
lclavicle -0.000000 -0.000000
upperneck 4.368520 0.123636 -4.055470
rfemur -63.253502 -14.665400 8.215080
thorax -3.166800 -2.664580 3.875330
rclavicle -0.000000 -0.000000
rtibia 59.462200
lfoot -23.760099 19.064400
lhumerus -39.228699 -6.578300 69.611702
rthumb 9.663050 327.993988
root 35.347301 16.905399 26.677401 204.076996 -57.016499 524.651978
ltoes -14.853400
lfemur 11.961400 4.683920 -18.229401
112
upperback -2.225150 -4.478740 -1.181680
rfoot -4.697020 -12.892000
lradius 41.547199
lthumb 8.973280 55.776901
rradius 22.821400
lwrist -7.505360
rhand -26.858299 1.962760
rhumerus -61.199902 -11.237900 -84.092697
lowerneck -3.982040 -1.045030 3.813800
lhand -17.271601 25.987700
ltibia 13.474000
head 2.113000 -0.756331 -1.704120
rwrist 9.693280
lfingers 7.125020
rtoes -6.583370
lowerback 1.400380 -3.118030 -7.656400
rfingers 7.125020
lclavicle -0.000000 -0.000000
upperneck 4.668730 -1.476140 -3.133010
rfemur -61.388599 -22.066700 15.124900
thorax -2.609720 -2.113980 3.196780
rclavicle -0.000000 -0.000000
rtibia 43.336700
lfoot -26.550600 20.394699
lhumerus -43.993500 3.200750 73.729202
rthumb -0.283230 331.983002
root 34.839401 16.734100 26.732100 199.022995 -58.928799 527.185974
ltoes -14.828400
lfemur 15.084900 2.779430 -17.172300
113
upperback -3.549980 -2.710040 -0.799687
rfoot -4.622980 -10.836600
lradius 26.413099
lthumb 7.091670 57.199501
rradius 16.844999
lwrist -13.672900
rhand -36.363201 16.245501
rhumerus -56.628700 -15.893900 -67.698097
lowerneck -6.259360 -3.823990 2.384370
lhand -19.221201 27.338301
ltibia 0.000000
head 1.358400 -2.658840 -1.522820
rwrist 15.041800
lfingers 7.125020
rtoes -9.602400
lowerback -0.099786 -1.911370 -2.964010
rfingers 7.125020
lclavicle 0.000000 0.000000
upperneck 1.425900 -5.209140 -3.074570
rfemur -63.423500 -22.793800 12.803000
thorax -3.500950 -1.307970 0.914417
rclavicle 0.000000 0.000000
rtibia 54.611000
lfoot -14.887000 21.702801
lhumerus -48.553501 12.800500 64.361298
rthumb -9.460240 346.477997
root 33.491100 16.355499 24.285400 202.520996 -66.096802 528.271973
ltoes -23.308701
lfemur 23.145000 -6.170680 -9.449810
114
upperback -3.370830 -2.082640 0.919445
rfoot -13.486500 -13.221100
lradius 19.095501
lthumb 3.350790 59.453300
rradius 32.885899
lwrist -21.466999
rhand -29.128700 -0.694722
rhumerus -44.132198 -10.698700 -68.452301
lowerneck -5.088290 -4.280310 0.934316
lhand -23.095600 29.499901
ltibia 52.752701
head 2.202920 -2.876940 -1.022960
rwrist 4.673520
lfingers 7.125020
rtoes -2.029300
lowerback 3.143720 -1.649340 2.221150
rfingers 7.125020
lclavicle 0.000000 -0.000000
upperneck 4.518890 -5.679660 -2.120130
rfemur -51.182201 -16.890900 25.124599
thorax -5.297090 -1.117330 -0.128672
rclavicle 0.000000 -0.000000
rtibia 60.528702
lfoot -13.598600 11.588500
lhumerus -58.667999 24.811600 42.400398
rthumb -2.475970 329.339996
root 32.226398 17.012699 20.965799 180.574005 -66.073601 547.388977
ltoes 11.469200
lfemur -2.968070 2.264630 -1.809260
115
upperback -2.094870 -1.097040 1.761790
rfoot -12.408900 -16.448601
lradius 23.715599
lthumb 6.517650 57.373699
rradius 36.485600
lwrist -18.587900
rhand -28.016001 -4.901060
rhumerus -41.702000 -7.045870 -66.078697
lowerneck -3.699190 -5.315690 -0.229817
lhand -19.815800 27.493999
ltibia 58.801899
head 3.337440 -3.614190 -0.853098
rwrist 7.972770
lfingers 7.125020
rtoes -9.307680
lowerback 3.661930 -0.966185 2.912870
rfingers 7.125020
lclavicle 0.000000 -0.000000
upperneck 8.560050 -7.051980 -1.873870
rfemur -37.715099 -13.504000 26.140699
thorax -4.237980 -0.616278 0.267590
rclavicle 0.000000 -0.000000
rtibia 57.912102
lfoot -26.239201 -2.201610
lhumerus -49.164700 19.383801 57.349400
rthumb -1.401330 325.123993
root 31.587400 17.674299 19.753700 169.992004 -65.574997 551.710022
ltoes 2.324400
lfemur -23.958300 7.865630 -19.447300
